<?xml version="1.0" encoding="UTF-8" standalone="no"?>
<!DOCTYPE svg PUBLIC "-//W3C//DTD SVG 1.1//EN"
 "http://www.w3.org/Graphics/SVG/1.1/DTD/svg11.dtd">
<!-- Generated by graphviz version 3.0.0 (20220226.1711)
 -->
<!-- Title: img Pages: 1 -->
<svg width="1161pt" height="1556pt"
 viewBox="0.00 0.00 1161.00 1556.00" xmlns="http://www.w3.org/2000/svg" xmlns:xlink="http://www.w3.org/1999/xlink">
<g id="graph0" class="graph" transform="scale(1 1) rotate(0) translate(4 1552)">
<title>img</title>
<polygon fill="white" stroke="transparent" points="-4,4 -4,-1552 1157,-1552 1157,4 -4,4"/>
<!-- 1 -->
<g id="node1" class="node">
<title>1</title>
<ellipse fill="none" stroke="black" cx="703" cy="-1530" rx="27" ry="18"/>
<text text-anchor="middle" x="703" y="-1526.3" font-family="Times,serif" font-size="14.00">1</text>
</g>
<!-- 2 -->
<g id="node2" class="node">
<title>2</title>
<ellipse fill="none" stroke="black" cx="703" cy="-1458" rx="27" ry="18"/>
<text text-anchor="middle" x="703" y="-1454.3" font-family="Times,serif" font-size="14.00">2</text>
</g>
<!-- 1&#45;&gt;2 -->
<g id="edge1" class="edge">
<title>1&#45;&gt;2</title>
<path fill="none" stroke="black" d="M703,-1511.7C703,-1503.98 703,-1494.71 703,-1486.11"/>
<polygon fill="black" stroke="black" points="706.5,-1486.1 703,-1476.1 699.5,-1486.1 706.5,-1486.1"/>
</g>
<!-- 3 -->
<g id="node3" class="node">
<title>3</title>
<ellipse fill="none" stroke="black" cx="703" cy="-1386" rx="27" ry="18"/>
<text text-anchor="middle" x="703" y="-1382.3" font-family="Times,serif" font-size="14.00">3</text>
</g>
<!-- 2&#45;&gt;3 -->
<g id="edge2" class="edge">
<title>2&#45;&gt;3</title>
<path fill="none" stroke="black" d="M703,-1439.7C703,-1431.98 703,-1422.71 703,-1414.11"/>
<polygon fill="black" stroke="black" points="706.5,-1414.1 703,-1404.1 699.5,-1414.1 706.5,-1414.1"/>
</g>
<!-- 4 -->
<g id="node4" class="node">
<title>4</title>
<ellipse fill="none" stroke="black" cx="703" cy="-1314" rx="27" ry="18"/>
<text text-anchor="middle" x="703" y="-1310.3" font-family="Times,serif" font-size="14.00">4</text>
</g>
<!-- 3&#45;&gt;4 -->
<g id="edge3" class="edge">
<title>3&#45;&gt;4</title>
<path fill="none" stroke="black" d="M703,-1367.7C703,-1359.98 703,-1350.71 703,-1342.11"/>
<polygon fill="black" stroke="black" points="706.5,-1342.1 703,-1332.1 699.5,-1342.1 706.5,-1342.1"/>
</g>
<!-- 5 -->
<g id="node5" class="node">
<title>5</title>
<ellipse fill="none" stroke="black" cx="703" cy="-1242" rx="27" ry="18"/>
<text text-anchor="middle" x="703" y="-1238.3" font-family="Times,serif" font-size="14.00">5</text>
</g>
<!-- 4&#45;&gt;5 -->
<g id="edge4" class="edge">
<title>4&#45;&gt;5</title>
<path fill="none" stroke="black" d="M703,-1295.7C703,-1287.98 703,-1278.71 703,-1270.11"/>
<polygon fill="black" stroke="black" points="706.5,-1270.1 703,-1260.1 699.5,-1270.1 706.5,-1270.1"/>
</g>
<!-- 7 -->
<g id="node6" class="node">
<title>7</title>
<ellipse fill="none" stroke="black" cx="667" cy="-1170" rx="27" ry="18"/>
<text text-anchor="middle" x="667" y="-1166.3" font-family="Times,serif" font-size="14.00">7</text>
</g>
<!-- 5&#45;&gt;7 -->
<g id="edge5" class="edge">
<title>5&#45;&gt;7</title>
<path fill="none" stroke="black" d="M694.65,-1224.76C690.29,-1216.28 684.85,-1205.71 679.96,-1196.2"/>
<polygon fill="black" stroke="black" points="682.99,-1194.44 675.3,-1187.15 676.77,-1197.64 682.99,-1194.44"/>
</g>
<!-- 8 -->
<g id="node7" class="node">
<title>8</title>
<ellipse fill="none" stroke="black" cx="866" cy="-1170" rx="27" ry="18"/>
<text text-anchor="middle" x="866" y="-1166.3" font-family="Times,serif" font-size="14.00">8</text>
</g>
<!-- 5&#45;&gt;8 -->
<g id="edge6" class="edge">
<title>5&#45;&gt;8</title>
<path fill="none" stroke="black" d="M725.32,-1231.41C753.61,-1219.27 802.53,-1198.25 834.58,-1184.49"/>
<polygon fill="black" stroke="black" points="836.14,-1187.63 843.95,-1180.47 833.38,-1181.2 836.14,-1187.63"/>
</g>
<!-- 9 -->
<g id="node8" class="node">
<title>9</title>
<ellipse fill="none" stroke="black" cx="379" cy="-1098" rx="27" ry="18"/>
<text text-anchor="middle" x="379" y="-1094.3" font-family="Times,serif" font-size="14.00">9</text>
</g>
<!-- 7&#45;&gt;9 -->
<g id="edge7" class="edge">
<title>7&#45;&gt;9</title>
<path fill="none" stroke="black" d="M641.95,-1162.91C590.56,-1150.42 473.14,-1121.88 414.17,-1107.55"/>
<polygon fill="black" stroke="black" points="414.75,-1104.09 404.2,-1105.13 413.09,-1110.89 414.75,-1104.09"/>
</g>
<!-- 13 -->
<g id="node9" class="node">
<title>13</title>
<ellipse fill="none" stroke="black" cx="667" cy="-1098" rx="27" ry="18"/>
<text text-anchor="middle" x="667" y="-1094.3" font-family="Times,serif" font-size="14.00">13</text>
</g>
<!-- 7&#45;&gt;13 -->
<g id="edge8" class="edge">
<title>7&#45;&gt;13</title>
<path fill="none" stroke="black" d="M667,-1151.7C667,-1143.98 667,-1134.71 667,-1126.11"/>
<polygon fill="black" stroke="black" points="670.5,-1126.1 667,-1116.1 663.5,-1126.1 670.5,-1126.1"/>
</g>
<!-- 10 -->
<g id="node69" class="node">
<title>10</title>
<ellipse fill="none" stroke="black" cx="955" cy="-1098" rx="27" ry="18"/>
<text text-anchor="middle" x="955" y="-1094.3" font-family="Times,serif" font-size="14.00">10</text>
</g>
<!-- 8&#45;&gt;10 -->
<g id="edge69" class="edge">
<title>8&#45;&gt;10</title>
<path fill="none" stroke="black" d="M882.74,-1155.83C896.08,-1145.34 914.96,-1130.49 930.08,-1118.6"/>
<polygon fill="black" stroke="black" points="932.34,-1121.28 938.03,-1112.35 928.01,-1115.78 932.34,-1121.28"/>
</g>
<!-- 15 -->
<g id="node10" class="node">
<title>15</title>
<ellipse fill="none" stroke="black" cx="307" cy="-1026" rx="27" ry="18"/>
<text text-anchor="middle" x="307" y="-1022.3" font-family="Times,serif" font-size="14.00">15</text>
</g>
<!-- 9&#45;&gt;15 -->
<g id="edge9" class="edge">
<title>9&#45;&gt;15</title>
<path fill="none" stroke="black" d="M364.43,-1082.83C354.25,-1072.94 340.48,-1059.55 328.97,-1048.36"/>
<polygon fill="black" stroke="black" points="331.41,-1045.85 321.8,-1041.38 326.53,-1050.87 331.41,-1045.85"/>
</g>
<!-- 20 -->
<g id="node11" class="node">
<title>20</title>
<ellipse fill="none" stroke="black" cx="379" cy="-1026" rx="27" ry="18"/>
<text text-anchor="middle" x="379" y="-1022.3" font-family="Times,serif" font-size="14.00">20</text>
</g>
<!-- 9&#45;&gt;20 -->
<g id="edge10" class="edge">
<title>9&#45;&gt;20</title>
<path fill="none" stroke="black" d="M379,-1079.7C379,-1071.98 379,-1062.71 379,-1054.11"/>
<polygon fill="black" stroke="black" points="382.5,-1054.1 379,-1044.1 375.5,-1054.1 382.5,-1054.1"/>
</g>
<!-- 14 -->
<g id="node42" class="node">
<title>14</title>
<ellipse fill="none" stroke="black" cx="667" cy="-1026" rx="27" ry="18"/>
<text text-anchor="middle" x="667" y="-1022.3" font-family="Times,serif" font-size="14.00">14</text>
</g>
<!-- 13&#45;&gt;14 -->
<g id="edge42" class="edge">
<title>13&#45;&gt;14</title>
<path fill="none" stroke="black" d="M667,-1079.7C667,-1071.98 667,-1062.71 667,-1054.11"/>
<polygon fill="black" stroke="black" points="670.5,-1054.1 667,-1044.1 663.5,-1054.1 670.5,-1054.1"/>
</g>
<!-- 32 -->
<g id="node12" class="node">
<title>32</title>
<ellipse fill="none" stroke="black" cx="307" cy="-954" rx="27" ry="18"/>
<text text-anchor="middle" x="307" y="-950.3" font-family="Times,serif" font-size="14.00">32</text>
</g>
<!-- 15&#45;&gt;32 -->
<g id="edge11" class="edge">
<title>15&#45;&gt;32</title>
<path fill="none" stroke="black" d="M307,-1007.7C307,-999.98 307,-990.71 307,-982.11"/>
<polygon fill="black" stroke="black" points="310.5,-982.1 307,-972.1 303.5,-982.1 310.5,-982.1"/>
</g>
<!-- 31 -->
<g id="node13" class="node">
<title>31</title>
<ellipse fill="none" stroke="black" cx="379" cy="-954" rx="27" ry="18"/>
<text text-anchor="middle" x="379" y="-950.3" font-family="Times,serif" font-size="14.00">31</text>
</g>
<!-- 20&#45;&gt;31 -->
<g id="edge12" class="edge">
<title>20&#45;&gt;31</title>
<path fill="none" stroke="black" d="M379,-1007.7C379,-999.98 379,-990.71 379,-982.11"/>
<polygon fill="black" stroke="black" points="382.5,-982.1 379,-972.1 375.5,-982.1 382.5,-982.1"/>
</g>
<!-- 43 -->
<g id="node14" class="node">
<title>43</title>
<ellipse fill="none" stroke="black" cx="252" cy="-882" rx="27" ry="18"/>
<text text-anchor="middle" x="252" y="-878.3" font-family="Times,serif" font-size="14.00">43</text>
</g>
<!-- 31&#45;&gt;43 -->
<g id="edge13" class="edge">
<title>31&#45;&gt;43</title>
<path fill="none" stroke="black" d="M358.88,-941.91C338.01,-930.41 305.16,-912.3 281.39,-899.2"/>
<polygon fill="black" stroke="black" points="282.9,-896.03 272.45,-894.27 279.52,-902.16 282.9,-896.03"/>
</g>
<!-- 45 -->
<g id="node15" class="node">
<title>45</title>
<ellipse fill="none" stroke="black" cx="379" cy="-882" rx="27" ry="18"/>
<text text-anchor="middle" x="379" y="-878.3" font-family="Times,serif" font-size="14.00">45</text>
</g>
<!-- 31&#45;&gt;45 -->
<g id="edge14" class="edge">
<title>31&#45;&gt;45</title>
<path fill="none" stroke="black" d="M379,-935.7C379,-927.98 379,-918.71 379,-910.11"/>
<polygon fill="black" stroke="black" points="382.5,-910.1 379,-900.1 375.5,-910.1 382.5,-910.1"/>
</g>
<!-- 58 -->
<g id="node16" class="node">
<title>58</title>
<ellipse fill="none" stroke="black" cx="161" cy="-810" rx="27" ry="18"/>
<text text-anchor="middle" x="161" y="-806.3" font-family="Times,serif" font-size="14.00">58</text>
</g>
<!-- 43&#45;&gt;58 -->
<g id="edge15" class="edge">
<title>43&#45;&gt;58</title>
<path fill="none" stroke="black" d="M234.88,-867.83C221.16,-857.27 201.69,-842.3 186.18,-830.37"/>
<polygon fill="black" stroke="black" points="188.1,-827.43 178.04,-824.11 183.83,-832.98 188.1,-827.43"/>
</g>
<!-- 62 -->
<g id="node17" class="node">
<title>62</title>
<ellipse fill="none" stroke="black" cx="252" cy="-810" rx="27" ry="18"/>
<text text-anchor="middle" x="252" y="-806.3" font-family="Times,serif" font-size="14.00">62</text>
</g>
<!-- 43&#45;&gt;62 -->
<g id="edge16" class="edge">
<title>43&#45;&gt;62</title>
<path fill="none" stroke="black" d="M252,-863.7C252,-855.98 252,-846.71 252,-838.11"/>
<polygon fill="black" stroke="black" points="255.5,-838.1 252,-828.1 248.5,-838.1 255.5,-838.1"/>
</g>
<!-- 55 -->
<g id="node33" class="node">
<title>55</title>
<ellipse fill="none" stroke="black" cx="343" cy="-810" rx="27" ry="18"/>
<text text-anchor="middle" x="343" y="-806.3" font-family="Times,serif" font-size="14.00">55</text>
</g>
<!-- 45&#45;&gt;55 -->
<g id="edge33" class="edge">
<title>45&#45;&gt;55</title>
<path fill="none" stroke="black" d="M370.65,-864.76C366.29,-856.28 360.85,-845.71 355.96,-836.2"/>
<polygon fill="black" stroke="black" points="358.99,-834.44 351.3,-827.15 352.77,-837.64 358.99,-834.44"/>
</g>
<!-- 57 -->
<g id="node34" class="node">
<title>57</title>
<ellipse fill="none" stroke="black" cx="415" cy="-810" rx="27" ry="18"/>
<text text-anchor="middle" x="415" y="-806.3" font-family="Times,serif" font-size="14.00">57</text>
</g>
<!-- 45&#45;&gt;57 -->
<g id="edge34" class="edge">
<title>45&#45;&gt;57</title>
<path fill="none" stroke="black" d="M387.35,-864.76C391.71,-856.28 397.15,-845.71 402.04,-836.2"/>
<polygon fill="black" stroke="black" points="405.23,-837.64 406.7,-827.15 399.01,-834.44 405.23,-837.64"/>
</g>
<!-- 77 -->
<g id="node18" class="node">
<title>77</title>
<ellipse fill="none" stroke="black" cx="89" cy="-738" rx="27" ry="18"/>
<text text-anchor="middle" x="89" y="-734.3" font-family="Times,serif" font-size="14.00">77</text>
</g>
<!-- 58&#45;&gt;77 -->
<g id="edge17" class="edge">
<title>58&#45;&gt;77</title>
<path fill="none" stroke="black" d="M146.43,-794.83C136.25,-784.94 122.48,-771.55 110.97,-760.36"/>
<polygon fill="black" stroke="black" points="113.41,-757.85 103.8,-753.38 108.53,-762.87 113.41,-757.85"/>
</g>
<!-- 80 -->
<g id="node19" class="node">
<title>80</title>
<ellipse fill="none" stroke="black" cx="161" cy="-738" rx="27" ry="18"/>
<text text-anchor="middle" x="161" y="-734.3" font-family="Times,serif" font-size="14.00">80</text>
</g>
<!-- 58&#45;&gt;80 -->
<g id="edge18" class="edge">
<title>58&#45;&gt;80</title>
<path fill="none" stroke="black" d="M161,-791.7C161,-783.98 161,-774.71 161,-766.11"/>
<polygon fill="black" stroke="black" points="164.5,-766.1 161,-756.1 157.5,-766.1 164.5,-766.1"/>
</g>
<!-- 81 -->
<g id="node26" class="node">
<title>81</title>
<ellipse fill="none" stroke="black" cx="233" cy="-738" rx="27" ry="18"/>
<text text-anchor="middle" x="233" y="-734.3" font-family="Times,serif" font-size="14.00">81</text>
</g>
<!-- 62&#45;&gt;81 -->
<g id="edge25" class="edge">
<title>62&#45;&gt;81</title>
<path fill="none" stroke="black" d="M247.4,-792.05C245.25,-784.14 242.65,-774.54 240.24,-765.69"/>
<polygon fill="black" stroke="black" points="243.55,-764.52 237.56,-755.79 236.8,-766.36 243.55,-764.52"/>
</g>
<!-- 82 -->
<g id="node27" class="node">
<title>82</title>
<ellipse fill="none" stroke="black" cx="238" cy="-594" rx="27" ry="18"/>
<text text-anchor="middle" x="238" y="-590.3" font-family="Times,serif" font-size="14.00">82</text>
</g>
<!-- 62&#45;&gt;82 -->
<g id="edge26" class="edge">
<title>62&#45;&gt;82</title>
<path fill="none" stroke="black" d="M258.89,-792.14C262.7,-781.88 267.06,-768.41 269,-756 276.42,-708.58 281.55,-694.33 269,-648 266.23,-637.77 260.93,-627.49 255.49,-618.74"/>
<polygon fill="black" stroke="black" points="258.3,-616.65 249.87,-610.24 252.47,-620.52 258.3,-616.65"/>
</g>
<!-- 91 -->
<g id="node20" class="node">
<title>91</title>
<ellipse fill="none" stroke="black" cx="27" cy="-666" rx="27" ry="18"/>
<text text-anchor="middle" x="27" y="-662.3" font-family="Times,serif" font-size="14.00">91</text>
</g>
<!-- 77&#45;&gt;91 -->
<g id="edge19" class="edge">
<title>77&#45;&gt;91</title>
<path fill="none" stroke="black" d="M75.85,-722.15C67.47,-712.69 56.44,-700.24 46.98,-689.56"/>
<polygon fill="black" stroke="black" points="49.38,-686.99 40.13,-681.82 44.14,-691.63 49.38,-686.99"/>
</g>
<!-- 95 -->
<g id="node21" class="node">
<title>95</title>
<ellipse fill="none" stroke="black" cx="99" cy="-666" rx="27" ry="18"/>
<text text-anchor="middle" x="99" y="-662.3" font-family="Times,serif" font-size="14.00">95</text>
</g>
<!-- 77&#45;&gt;95 -->
<g id="edge20" class="edge">
<title>77&#45;&gt;95</title>
<path fill="none" stroke="black" d="M91.42,-720.05C92.52,-712.35 93.85,-703.03 95.09,-694.36"/>
<polygon fill="black" stroke="black" points="98.58,-694.67 96.53,-684.28 91.65,-693.68 98.58,-694.67"/>
</g>
<!-- 101 -->
<g id="node22" class="node">
<title>101</title>
<ellipse fill="none" stroke="black" cx="27" cy="-594" rx="27" ry="18"/>
<text text-anchor="middle" x="27" y="-590.3" font-family="Times,serif" font-size="14.00">101</text>
</g>
<!-- 91&#45;&gt;101 -->
<g id="edge21" class="edge">
<title>91&#45;&gt;101</title>
<path fill="none" stroke="black" d="M27,-647.7C27,-639.98 27,-630.71 27,-622.11"/>
<polygon fill="black" stroke="black" points="30.5,-622.1 27,-612.1 23.5,-622.1 30.5,-622.1"/>
</g>
<!-- 106 -->
<g id="node24" class="node">
<title>106</title>
<ellipse fill="none" stroke="black" cx="99" cy="-594" rx="27" ry="18"/>
<text text-anchor="middle" x="99" y="-590.3" font-family="Times,serif" font-size="14.00">106</text>
</g>
<!-- 95&#45;&gt;106 -->
<g id="edge23" class="edge">
<title>95&#45;&gt;106</title>
<path fill="none" stroke="black" d="M99,-647.7C99,-639.98 99,-630.71 99,-622.11"/>
<polygon fill="black" stroke="black" points="102.5,-622.1 99,-612.1 95.5,-622.1 102.5,-622.1"/>
</g>
<!-- 133 -->
<g id="node23" class="node">
<title>133</title>
<ellipse fill="none" stroke="black" cx="27" cy="-522" rx="27" ry="18"/>
<text text-anchor="middle" x="27" y="-518.3" font-family="Times,serif" font-size="14.00">133</text>
</g>
<!-- 101&#45;&gt;133 -->
<g id="edge22" class="edge">
<title>101&#45;&gt;133</title>
<path fill="none" stroke="black" d="M27,-575.7C27,-567.98 27,-558.71 27,-550.11"/>
<polygon fill="black" stroke="black" points="30.5,-550.1 27,-540.1 23.5,-550.1 30.5,-550.1"/>
</g>
<!-- 111 -->
<g id="node25" class="node">
<title>111</title>
<ellipse fill="none" stroke="black" cx="99" cy="-522" rx="27" ry="18"/>
<text text-anchor="middle" x="99" y="-518.3" font-family="Times,serif" font-size="14.00">111</text>
</g>
<!-- 106&#45;&gt;111 -->
<g id="edge24" class="edge">
<title>106&#45;&gt;111</title>
<path fill="none" stroke="black" d="M99,-575.7C99,-567.98 99,-558.71 99,-550.11"/>
<polygon fill="black" stroke="black" points="102.5,-550.1 99,-540.1 95.5,-550.1 102.5,-550.1"/>
</g>
<!-- 110 -->
<g id="node28" class="node">
<title>110</title>
<ellipse fill="none" stroke="black" cx="233" cy="-666" rx="27" ry="18"/>
<text text-anchor="middle" x="233" y="-662.3" font-family="Times,serif" font-size="14.00">110</text>
</g>
<!-- 81&#45;&gt;110 -->
<g id="edge27" class="edge">
<title>81&#45;&gt;110</title>
<path fill="none" stroke="black" d="M233,-719.7C233,-711.98 233,-702.71 233,-694.11"/>
<polygon fill="black" stroke="black" points="236.5,-694.1 233,-684.1 229.5,-694.1 236.5,-694.1"/>
</g>
<!-- 96 -->
<g id="node29" class="node">
<title>96</title>
<ellipse fill="none" stroke="black" cx="185" cy="-522" rx="27" ry="18"/>
<text text-anchor="middle" x="185" y="-518.3" font-family="Times,serif" font-size="14.00">96</text>
</g>
<!-- 82&#45;&gt;96 -->
<g id="edge29" class="edge">
<title>82&#45;&gt;96</title>
<path fill="none" stroke="black" d="M226.24,-577.46C219.38,-568.4 210.58,-556.79 202.88,-546.61"/>
<polygon fill="black" stroke="black" points="205.56,-544.35 196.73,-538.49 199.98,-548.58 205.56,-544.35"/>
</g>
<!-- 98 -->
<g id="node30" class="node">
<title>98</title>
<ellipse fill="none" stroke="black" cx="257" cy="-522" rx="27" ry="18"/>
<text text-anchor="middle" x="257" y="-518.3" font-family="Times,serif" font-size="14.00">98</text>
</g>
<!-- 82&#45;&gt;98 -->
<g id="edge30" class="edge">
<title>82&#45;&gt;98</title>
<path fill="none" stroke="black" d="M242.6,-576.05C244.75,-568.14 247.35,-558.54 249.76,-549.69"/>
<polygon fill="black" stroke="black" points="253.2,-550.36 252.44,-539.79 246.45,-548.52 253.2,-550.36"/>
</g>
<!-- 110&#45;&gt;82 -->
<g id="edge28" class="edge">
<title>110&#45;&gt;82</title>
<path fill="none" stroke="black" d="M234.24,-647.7C234.79,-639.98 235.45,-630.71 236.06,-622.11"/>
<polygon fill="black" stroke="black" points="239.56,-622.33 236.78,-612.1 232.57,-621.83 239.56,-622.33"/>
</g>
<!-- 109 -->
<g id="node31" class="node">
<title>109</title>
<ellipse fill="none" stroke="black" cx="257" cy="-450" rx="27" ry="18"/>
<text text-anchor="middle" x="257" y="-446.3" font-family="Times,serif" font-size="14.00">109</text>
</g>
<!-- 98&#45;&gt;109 -->
<g id="edge31" class="edge">
<title>98&#45;&gt;109</title>
<path fill="none" stroke="black" d="M257,-503.7C257,-495.98 257,-486.71 257,-478.11"/>
<polygon fill="black" stroke="black" points="260.5,-478.1 257,-468.1 253.5,-478.1 260.5,-478.1"/>
</g>
<!-- 60 -->
<g id="node32" class="node">
<title>60</title>
<ellipse fill="none" stroke="black" cx="257" cy="-378" rx="27" ry="18"/>
<text text-anchor="middle" x="257" y="-374.3" font-family="Times,serif" font-size="14.00">60</text>
</g>
<!-- 109&#45;&gt;60 -->
<g id="edge32" class="edge">
<title>109&#45;&gt;60</title>
<path fill="none" stroke="black" d="M257,-431.7C257,-423.98 257,-414.71 257,-406.11"/>
<polygon fill="black" stroke="black" points="260.5,-406.1 257,-396.1 253.5,-406.1 260.5,-406.1"/>
</g>
<!-- 76 -->
<g id="node35" class="node">
<title>76</title>
<ellipse fill="none" stroke="black" cx="343" cy="-738" rx="27" ry="18"/>
<text text-anchor="middle" x="343" y="-734.3" font-family="Times,serif" font-size="14.00">76</text>
</g>
<!-- 55&#45;&gt;76 -->
<g id="edge35" class="edge">
<title>55&#45;&gt;76</title>
<path fill="none" stroke="black" d="M343,-791.7C343,-783.98 343,-774.71 343,-766.11"/>
<polygon fill="black" stroke="black" points="346.5,-766.1 343,-756.1 339.5,-766.1 346.5,-766.1"/>
</g>
<!-- 75 -->
<g id="node40" class="node">
<title>75</title>
<ellipse fill="none" stroke="black" cx="415" cy="-738" rx="27" ry="18"/>
<text text-anchor="middle" x="415" y="-734.3" font-family="Times,serif" font-size="14.00">75</text>
</g>
<!-- 57&#45;&gt;75 -->
<g id="edge40" class="edge">
<title>57&#45;&gt;75</title>
<path fill="none" stroke="black" d="M415,-791.7C415,-783.98 415,-774.71 415,-766.11"/>
<polygon fill="black" stroke="black" points="418.5,-766.1 415,-756.1 411.5,-766.1 418.5,-766.1"/>
</g>
<!-- 78 -->
<g id="node36" class="node">
<title>78</title>
<ellipse fill="none" stroke="black" cx="343" cy="-666" rx="27" ry="18"/>
<text text-anchor="middle" x="343" y="-662.3" font-family="Times,serif" font-size="14.00">78</text>
</g>
<!-- 76&#45;&gt;78 -->
<g id="edge36" class="edge">
<title>76&#45;&gt;78</title>
<path fill="none" stroke="black" d="M343,-719.7C343,-711.98 343,-702.71 343,-694.11"/>
<polygon fill="black" stroke="black" points="346.5,-694.1 343,-684.1 339.5,-694.1 346.5,-694.1"/>
</g>
<!-- 100 -->
<g id="node37" class="node">
<title>100</title>
<ellipse fill="none" stroke="black" cx="334" cy="-594" rx="27" ry="18"/>
<text text-anchor="middle" x="334" y="-590.3" font-family="Times,serif" font-size="14.00">100</text>
</g>
<!-- 78&#45;&gt;100 -->
<g id="edge37" class="edge">
<title>78&#45;&gt;100</title>
<path fill="none" stroke="black" d="M340.82,-648.05C339.83,-640.35 338.63,-631.03 337.52,-622.36"/>
<polygon fill="black" stroke="black" points="340.97,-621.75 336.22,-612.28 334.02,-622.64 340.97,-621.75"/>
</g>
<!-- 102 -->
<g id="node38" class="node">
<title>102</title>
<ellipse fill="none" stroke="black" cx="406" cy="-594" rx="27" ry="18"/>
<text text-anchor="middle" x="406" y="-590.3" font-family="Times,serif" font-size="14.00">102</text>
</g>
<!-- 78&#45;&gt;102 -->
<g id="edge38" class="edge">
<title>78&#45;&gt;102</title>
<path fill="none" stroke="black" d="M356.36,-650.15C364.88,-640.69 376.09,-628.24 385.69,-617.56"/>
<polygon fill="black" stroke="black" points="388.57,-619.6 392.66,-609.82 383.37,-614.92 388.57,-619.6"/>
</g>
<!-- 104 -->
<g id="node39" class="node">
<title>104</title>
<ellipse fill="none" stroke="black" cx="334" cy="-522" rx="27" ry="18"/>
<text text-anchor="middle" x="334" y="-518.3" font-family="Times,serif" font-size="14.00">104</text>
</g>
<!-- 100&#45;&gt;104 -->
<g id="edge39" class="edge">
<title>100&#45;&gt;104</title>
<path fill="none" stroke="black" d="M334,-575.7C334,-567.98 334,-558.71 334,-550.11"/>
<polygon fill="black" stroke="black" points="337.5,-550.1 334,-540.1 330.5,-550.1 337.5,-550.1"/>
</g>
<!-- 73 -->
<g id="node41" class="node">
<title>73</title>
<ellipse fill="none" stroke="black" cx="415" cy="-666" rx="27" ry="18"/>
<text text-anchor="middle" x="415" y="-662.3" font-family="Times,serif" font-size="14.00">73</text>
</g>
<!-- 75&#45;&gt;73 -->
<g id="edge41" class="edge">
<title>75&#45;&gt;73</title>
<path fill="none" stroke="black" d="M415,-719.7C415,-711.98 415,-702.71 415,-694.11"/>
<polygon fill="black" stroke="black" points="418.5,-694.1 415,-684.1 411.5,-694.1 418.5,-694.1"/>
</g>
<!-- 22 -->
<g id="node43" class="node">
<title>22</title>
<ellipse fill="none" stroke="black" cx="631" cy="-954" rx="27" ry="18"/>
<text text-anchor="middle" x="631" y="-950.3" font-family="Times,serif" font-size="14.00">22</text>
</g>
<!-- 14&#45;&gt;22 -->
<g id="edge43" class="edge">
<title>14&#45;&gt;22</title>
<path fill="none" stroke="black" d="M658.65,-1008.76C654.29,-1000.28 648.85,-989.71 643.96,-980.2"/>
<polygon fill="black" stroke="black" points="646.99,-978.44 639.3,-971.15 640.77,-981.64 646.99,-978.44"/>
</g>
<!-- 23 -->
<g id="node44" class="node">
<title>23</title>
<ellipse fill="none" stroke="black" cx="703" cy="-954" rx="27" ry="18"/>
<text text-anchor="middle" x="703" y="-950.3" font-family="Times,serif" font-size="14.00">23</text>
</g>
<!-- 14&#45;&gt;23 -->
<g id="edge44" class="edge">
<title>14&#45;&gt;23</title>
<path fill="none" stroke="black" d="M675.35,-1008.76C679.71,-1000.28 685.15,-989.71 690.04,-980.2"/>
<polygon fill="black" stroke="black" points="693.23,-981.64 694.7,-971.15 687.01,-978.44 693.23,-981.64"/>
</g>
<!-- 34 -->
<g id="node45" class="node">
<title>34</title>
<ellipse fill="none" stroke="black" cx="631" cy="-882" rx="27" ry="18"/>
<text text-anchor="middle" x="631" y="-878.3" font-family="Times,serif" font-size="14.00">34</text>
</g>
<!-- 22&#45;&gt;34 -->
<g id="edge45" class="edge">
<title>22&#45;&gt;34</title>
<path fill="none" stroke="black" d="M631,-935.7C631,-927.98 631,-918.71 631,-910.11"/>
<polygon fill="black" stroke="black" points="634.5,-910.1 631,-900.1 627.5,-910.1 634.5,-910.1"/>
</g>
<!-- 33 -->
<g id="node51" class="node">
<title>33</title>
<ellipse fill="none" stroke="black" cx="703" cy="-882" rx="27" ry="18"/>
<text text-anchor="middle" x="703" y="-878.3" font-family="Times,serif" font-size="14.00">33</text>
</g>
<!-- 23&#45;&gt;33 -->
<g id="edge51" class="edge">
<title>23&#45;&gt;33</title>
<path fill="none" stroke="black" d="M703,-935.7C703,-927.98 703,-918.71 703,-910.11"/>
<polygon fill="black" stroke="black" points="706.5,-910.1 703,-900.1 699.5,-910.1 706.5,-910.1"/>
</g>
<!-- 38 -->
<g id="node52" class="node">
<title>38</title>
<ellipse fill="none" stroke="black" cx="775" cy="-882" rx="27" ry="18"/>
<text text-anchor="middle" x="775" y="-878.3" font-family="Times,serif" font-size="14.00">38</text>
</g>
<!-- 23&#45;&gt;38 -->
<g id="edge52" class="edge">
<title>23&#45;&gt;38</title>
<path fill="none" stroke="black" d="M717.57,-938.83C727.75,-928.94 741.52,-915.55 753.03,-904.36"/>
<polygon fill="black" stroke="black" points="755.47,-906.87 760.2,-897.38 750.59,-901.85 755.47,-906.87"/>
</g>
<!-- 21 -->
<g id="node46" class="node">
<title>21</title>
<ellipse fill="none" stroke="black" cx="631" cy="-810" rx="27" ry="18"/>
<text text-anchor="middle" x="631" y="-806.3" font-family="Times,serif" font-size="14.00">21</text>
</g>
<!-- 34&#45;&gt;21 -->
<g id="edge46" class="edge">
<title>34&#45;&gt;21</title>
<path fill="none" stroke="black" d="M631,-863.7C631,-855.98 631,-846.71 631,-838.11"/>
<polygon fill="black" stroke="black" points="634.5,-838.1 631,-828.1 627.5,-838.1 634.5,-838.1"/>
</g>
<!-- 46 -->
<g id="node47" class="node">
<title>46</title>
<ellipse fill="none" stroke="black" cx="559" cy="-738" rx="27" ry="18"/>
<text text-anchor="middle" x="559" y="-734.3" font-family="Times,serif" font-size="14.00">46</text>
</g>
<!-- 21&#45;&gt;46 -->
<g id="edge47" class="edge">
<title>21&#45;&gt;46</title>
<path fill="none" stroke="black" d="M616.43,-794.83C606.25,-784.94 592.48,-771.55 580.97,-760.36"/>
<polygon fill="black" stroke="black" points="583.41,-757.85 573.8,-753.38 578.53,-762.87 583.41,-757.85"/>
</g>
<!-- 47 -->
<g id="node48" class="node">
<title>47</title>
<ellipse fill="none" stroke="black" cx="631" cy="-738" rx="27" ry="18"/>
<text text-anchor="middle" x="631" y="-734.3" font-family="Times,serif" font-size="14.00">47</text>
</g>
<!-- 21&#45;&gt;47 -->
<g id="edge48" class="edge">
<title>21&#45;&gt;47</title>
<path fill="none" stroke="black" d="M631,-791.7C631,-783.98 631,-774.71 631,-766.11"/>
<polygon fill="black" stroke="black" points="634.5,-766.1 631,-756.1 627.5,-766.1 634.5,-766.1"/>
</g>
<!-- 59 -->
<g id="node49" class="node">
<title>59</title>
<ellipse fill="none" stroke="black" cx="487" cy="-666" rx="27" ry="18"/>
<text text-anchor="middle" x="487" y="-662.3" font-family="Times,serif" font-size="14.00">59</text>
</g>
<!-- 46&#45;&gt;59 -->
<g id="edge49" class="edge">
<title>46&#45;&gt;59</title>
<path fill="none" stroke="black" d="M544.43,-722.83C534.25,-712.94 520.48,-699.55 508.97,-688.36"/>
<polygon fill="black" stroke="black" points="511.41,-685.85 501.8,-681.38 506.53,-690.87 511.41,-685.85"/>
</g>
<!-- 64 -->
<g id="node50" class="node">
<title>64</title>
<ellipse fill="none" stroke="black" cx="559" cy="-666" rx="27" ry="18"/>
<text text-anchor="middle" x="559" y="-662.3" font-family="Times,serif" font-size="14.00">64</text>
</g>
<!-- 46&#45;&gt;64 -->
<g id="edge50" class="edge">
<title>46&#45;&gt;64</title>
<path fill="none" stroke="black" d="M559,-719.7C559,-711.98 559,-702.71 559,-694.11"/>
<polygon fill="black" stroke="black" points="562.5,-694.1 559,-684.1 555.5,-694.1 562.5,-694.1"/>
</g>
<!-- 50 -->
<g id="node53" class="node">
<title>50</title>
<ellipse fill="none" stroke="black" cx="775" cy="-810" rx="27" ry="18"/>
<text text-anchor="middle" x="775" y="-806.3" font-family="Times,serif" font-size="14.00">50</text>
</g>
<!-- 38&#45;&gt;50 -->
<g id="edge53" class="edge">
<title>38&#45;&gt;50</title>
<path fill="none" stroke="black" d="M775,-863.7C775,-855.98 775,-846.71 775,-838.11"/>
<polygon fill="black" stroke="black" points="778.5,-838.1 775,-828.1 771.5,-838.1 778.5,-838.1"/>
</g>
<!-- 48 -->
<g id="node63" class="node">
<title>48</title>
<ellipse fill="none" stroke="black" cx="864" cy="-810" rx="27" ry="18"/>
<text text-anchor="middle" x="864" y="-806.3" font-family="Times,serif" font-size="14.00">48</text>
</g>
<!-- 38&#45;&gt;48 -->
<g id="edge63" class="edge">
<title>38&#45;&gt;48</title>
<path fill="none" stroke="black" d="M791.74,-867.83C805.08,-857.34 823.96,-842.49 839.08,-830.6"/>
<polygon fill="black" stroke="black" points="841.34,-833.28 847.03,-824.35 837.01,-827.78 841.34,-833.28"/>
</g>
<!-- 65 -->
<g id="node54" class="node">
<title>65</title>
<ellipse fill="none" stroke="black" cx="703" cy="-738" rx="27" ry="18"/>
<text text-anchor="middle" x="703" y="-734.3" font-family="Times,serif" font-size="14.00">65</text>
</g>
<!-- 50&#45;&gt;65 -->
<g id="edge54" class="edge">
<title>50&#45;&gt;65</title>
<path fill="none" stroke="black" d="M760.43,-794.83C750.25,-784.94 736.48,-771.55 724.97,-760.36"/>
<polygon fill="black" stroke="black" points="727.41,-757.85 717.8,-753.38 722.53,-762.87 727.41,-757.85"/>
</g>
<!-- 67 -->
<g id="node55" class="node">
<title>67</title>
<ellipse fill="none" stroke="black" cx="775" cy="-738" rx="27" ry="18"/>
<text text-anchor="middle" x="775" y="-734.3" font-family="Times,serif" font-size="14.00">67</text>
</g>
<!-- 50&#45;&gt;67 -->
<g id="edge55" class="edge">
<title>50&#45;&gt;67</title>
<path fill="none" stroke="black" d="M775,-791.7C775,-783.98 775,-774.71 775,-766.11"/>
<polygon fill="black" stroke="black" points="778.5,-766.1 775,-756.1 771.5,-766.1 778.5,-766.1"/>
</g>
<!-- 86 -->
<g id="node59" class="node">
<title>86</title>
<ellipse fill="none" stroke="black" cx="631" cy="-666" rx="27" ry="18"/>
<text text-anchor="middle" x="631" y="-662.3" font-family="Times,serif" font-size="14.00">86</text>
</g>
<!-- 65&#45;&gt;86 -->
<g id="edge59" class="edge">
<title>65&#45;&gt;86</title>
<path fill="none" stroke="black" d="M688.43,-722.83C678.25,-712.94 664.48,-699.55 652.97,-688.36"/>
<polygon fill="black" stroke="black" points="655.41,-685.85 645.8,-681.38 650.53,-690.87 655.41,-685.85"/>
</g>
<!-- 87 -->
<g id="node60" class="node">
<title>87</title>
<ellipse fill="none" stroke="black" cx="703" cy="-666" rx="27" ry="18"/>
<text text-anchor="middle" x="703" y="-662.3" font-family="Times,serif" font-size="14.00">87</text>
</g>
<!-- 65&#45;&gt;87 -->
<g id="edge60" class="edge">
<title>65&#45;&gt;87</title>
<path fill="none" stroke="black" d="M703,-719.7C703,-711.98 703,-702.71 703,-694.11"/>
<polygon fill="black" stroke="black" points="706.5,-694.1 703,-684.1 699.5,-694.1 706.5,-694.1"/>
</g>
<!-- 85 -->
<g id="node56" class="node">
<title>85</title>
<ellipse fill="none" stroke="black" cx="775" cy="-666" rx="27" ry="18"/>
<text text-anchor="middle" x="775" y="-662.3" font-family="Times,serif" font-size="14.00">85</text>
</g>
<!-- 67&#45;&gt;85 -->
<g id="edge56" class="edge">
<title>67&#45;&gt;85</title>
<path fill="none" stroke="black" d="M775,-719.7C775,-711.98 775,-702.71 775,-694.11"/>
<polygon fill="black" stroke="black" points="778.5,-694.1 775,-684.1 771.5,-694.1 778.5,-694.1"/>
</g>
<!-- 83 -->
<g id="node57" class="node">
<title>83</title>
<ellipse fill="none" stroke="black" cx="847" cy="-666" rx="27" ry="18"/>
<text text-anchor="middle" x="847" y="-662.3" font-family="Times,serif" font-size="14.00">83</text>
</g>
<!-- 67&#45;&gt;83 -->
<g id="edge57" class="edge">
<title>67&#45;&gt;83</title>
<path fill="none" stroke="black" d="M789.57,-722.83C799.75,-712.94 813.52,-699.55 825.03,-688.36"/>
<polygon fill="black" stroke="black" points="827.47,-690.87 832.2,-681.38 822.59,-685.85 827.47,-690.87"/>
</g>
<!-- 99 -->
<g id="node58" class="node">
<title>99</title>
<ellipse fill="none" stroke="black" cx="847" cy="-594" rx="27" ry="18"/>
<text text-anchor="middle" x="847" y="-590.3" font-family="Times,serif" font-size="14.00">99</text>
</g>
<!-- 83&#45;&gt;99 -->
<g id="edge58" class="edge">
<title>83&#45;&gt;99</title>
<path fill="none" stroke="black" d="M847,-647.7C847,-639.98 847,-630.71 847,-622.11"/>
<polygon fill="black" stroke="black" points="850.5,-622.1 847,-612.1 843.5,-622.1 850.5,-622.1"/>
</g>
<!-- 37 -->
<g id="node61" class="node">
<title>37</title>
<ellipse fill="none" stroke="black" cx="595" cy="-594" rx="27" ry="18"/>
<text text-anchor="middle" x="595" y="-590.3" font-family="Times,serif" font-size="14.00">37</text>
</g>
<!-- 86&#45;&gt;37 -->
<g id="edge61" class="edge">
<title>86&#45;&gt;37</title>
<path fill="none" stroke="black" d="M622.65,-648.76C618.29,-640.28 612.85,-629.71 607.96,-620.2"/>
<polygon fill="black" stroke="black" points="610.99,-618.44 603.3,-611.15 604.77,-621.64 610.99,-618.44"/>
</g>
<!-- 114 -->
<g id="node62" class="node">
<title>114</title>
<ellipse fill="none" stroke="black" cx="667" cy="-594" rx="27" ry="18"/>
<text text-anchor="middle" x="667" y="-590.3" font-family="Times,serif" font-size="14.00">114</text>
</g>
<!-- 86&#45;&gt;114 -->
<g id="edge62" class="edge">
<title>86&#45;&gt;114</title>
<path fill="none" stroke="black" d="M639.35,-648.76C643.71,-640.28 649.15,-629.71 654.04,-620.2"/>
<polygon fill="black" stroke="black" points="657.23,-621.64 658.7,-611.15 651.01,-618.44 657.23,-621.64"/>
</g>
<!-- 49 -->
<g id="node64" class="node">
<title>49</title>
<ellipse fill="none" stroke="black" cx="891" cy="-738" rx="27" ry="18"/>
<text text-anchor="middle" x="891" y="-734.3" font-family="Times,serif" font-size="14.00">49</text>
</g>
<!-- 48&#45;&gt;49 -->
<g id="edge64" class="edge">
<title>48&#45;&gt;49</title>
<path fill="none" stroke="black" d="M870.4,-792.41C873.51,-784.34 877.33,-774.43 880.83,-765.35"/>
<polygon fill="black" stroke="black" points="884.13,-766.55 884.46,-755.96 877.6,-764.03 884.13,-766.55"/>
</g>
<!-- 68 -->
<g id="node65" class="node">
<title>68</title>
<ellipse fill="none" stroke="black" cx="919" cy="-666" rx="27" ry="18"/>
<text text-anchor="middle" x="919" y="-662.3" font-family="Times,serif" font-size="14.00">68</text>
</g>
<!-- 49&#45;&gt;68 -->
<g id="edge65" class="edge">
<title>49&#45;&gt;68</title>
<path fill="none" stroke="black" d="M897.64,-720.41C900.91,-712.22 904.94,-702.14 908.62,-692.95"/>
<polygon fill="black" stroke="black" points="911.95,-694.05 912.41,-683.47 905.45,-691.45 911.95,-694.05"/>
</g>
<!-- 69 -->
<g id="node66" class="node">
<title>69</title>
<ellipse fill="none" stroke="black" cx="919" cy="-594" rx="27" ry="18"/>
<text text-anchor="middle" x="919" y="-590.3" font-family="Times,serif" font-size="14.00">69</text>
</g>
<!-- 68&#45;&gt;69 -->
<g id="edge66" class="edge">
<title>68&#45;&gt;69</title>
<path fill="none" stroke="black" d="M919,-647.7C919,-639.98 919,-630.71 919,-622.11"/>
<polygon fill="black" stroke="black" points="922.5,-622.1 919,-612.1 915.5,-622.1 922.5,-622.1"/>
</g>
<!-- 88 -->
<g id="node67" class="node">
<title>88</title>
<ellipse fill="none" stroke="black" cx="847" cy="-522" rx="27" ry="18"/>
<text text-anchor="middle" x="847" y="-518.3" font-family="Times,serif" font-size="14.00">88</text>
</g>
<!-- 69&#45;&gt;88 -->
<g id="edge67" class="edge">
<title>69&#45;&gt;88</title>
<path fill="none" stroke="black" d="M904.43,-578.83C894.25,-568.94 880.48,-555.55 868.97,-544.36"/>
<polygon fill="black" stroke="black" points="871.41,-541.85 861.8,-537.38 866.53,-546.87 871.41,-541.85"/>
</g>
<!-- 89 -->
<g id="node68" class="node">
<title>89</title>
<ellipse fill="none" stroke="black" cx="919" cy="-522" rx="27" ry="18"/>
<text text-anchor="middle" x="919" y="-518.3" font-family="Times,serif" font-size="14.00">89</text>
</g>
<!-- 69&#45;&gt;89 -->
<g id="edge68" class="edge">
<title>69&#45;&gt;89</title>
<path fill="none" stroke="black" d="M919,-575.7C919,-567.98 919,-558.71 919,-550.11"/>
<polygon fill="black" stroke="black" points="922.5,-550.1 919,-540.1 915.5,-550.1 922.5,-550.1"/>
</g>
<!-- 16 -->
<g id="node70" class="node">
<title>16</title>
<ellipse fill="none" stroke="black" cx="955" cy="-1026" rx="27" ry="18"/>
<text text-anchor="middle" x="955" y="-1022.3" font-family="Times,serif" font-size="14.00">16</text>
</g>
<!-- 10&#45;&gt;16 -->
<g id="edge70" class="edge">
<title>10&#45;&gt;16</title>
<path fill="none" stroke="black" d="M955,-1079.7C955,-1071.98 955,-1062.71 955,-1054.11"/>
<polygon fill="black" stroke="black" points="958.5,-1054.1 955,-1044.1 951.5,-1054.1 958.5,-1054.1"/>
</g>
<!-- 19 -->
<g id="node71" class="node">
<title>19</title>
<ellipse fill="none" stroke="black" cx="1054" cy="-1026" rx="27" ry="18"/>
<text text-anchor="middle" x="1054" y="-1022.3" font-family="Times,serif" font-size="14.00">19</text>
</g>
<!-- 10&#45;&gt;19 -->
<g id="edge71" class="edge">
<title>10&#45;&gt;19</title>
<path fill="none" stroke="black" d="M973.16,-1084.16C988.37,-1073.41 1010.29,-1057.91 1027.47,-1045.76"/>
<polygon fill="black" stroke="black" points="1029.81,-1048.39 1035.96,-1039.76 1025.77,-1042.67 1029.81,-1048.39"/>
</g>
<!-- 24 -->
<g id="node72" class="node">
<title>24</title>
<ellipse fill="none" stroke="black" cx="982" cy="-738" rx="27" ry="18"/>
<text text-anchor="middle" x="982" y="-734.3" font-family="Times,serif" font-size="14.00">24</text>
</g>
<!-- 16&#45;&gt;24 -->
<g id="edge72" class="edge">
<title>16&#45;&gt;24</title>
<path fill="none" stroke="black" d="M950.62,-1008.13C941.27,-969.06 922.08,-869.77 946,-792 949.29,-781.31 955.54,-770.85 961.93,-762.08"/>
<polygon fill="black" stroke="black" points="964.88,-763.98 968.25,-753.93 959.35,-759.69 964.88,-763.98"/>
</g>
<!-- 27 -->
<g id="node73" class="node">
<title>27</title>
<ellipse fill="none" stroke="black" cx="982" cy="-954" rx="27" ry="18"/>
<text text-anchor="middle" x="982" y="-950.3" font-family="Times,serif" font-size="14.00">27</text>
</g>
<!-- 16&#45;&gt;27 -->
<g id="edge73" class="edge">
<title>16&#45;&gt;27</title>
<path fill="none" stroke="black" d="M961.4,-1008.41C964.51,-1000.34 968.33,-990.43 971.83,-981.35"/>
<polygon fill="black" stroke="black" points="975.13,-982.55 975.46,-971.96 968.6,-980.03 975.13,-982.55"/>
</g>
<!-- 28 -->
<g id="node91" class="node">
<title>28</title>
<ellipse fill="none" stroke="black" cx="1054" cy="-954" rx="27" ry="18"/>
<text text-anchor="middle" x="1054" y="-950.3" font-family="Times,serif" font-size="14.00">28</text>
</g>
<!-- 19&#45;&gt;28 -->
<g id="edge93" class="edge">
<title>19&#45;&gt;28</title>
<path fill="none" stroke="black" d="M1054,-1007.7C1054,-999.98 1054,-990.71 1054,-982.11"/>
<polygon fill="black" stroke="black" points="1057.5,-982.1 1054,-972.1 1050.5,-982.1 1057.5,-982.1"/>
</g>
<!-- 29 -->
<g id="node92" class="node">
<title>29</title>
<ellipse fill="none" stroke="black" cx="1126" cy="-954" rx="27" ry="18"/>
<text text-anchor="middle" x="1126" y="-950.3" font-family="Times,serif" font-size="14.00">29</text>
</g>
<!-- 19&#45;&gt;29 -->
<g id="edge94" class="edge">
<title>19&#45;&gt;29</title>
<path fill="none" stroke="black" d="M1068.57,-1010.83C1078.75,-1000.94 1092.52,-987.55 1104.03,-976.36"/>
<polygon fill="black" stroke="black" points="1106.47,-978.87 1111.2,-969.38 1101.59,-973.85 1106.47,-978.87"/>
</g>
<!-- 26 -->
<g id="node74" class="node">
<title>26</title>
<ellipse fill="none" stroke="black" cx="991" cy="-666" rx="27" ry="18"/>
<text text-anchor="middle" x="991" y="-662.3" font-family="Times,serif" font-size="14.00">26</text>
</g>
<!-- 24&#45;&gt;26 -->
<g id="edge74" class="edge">
<title>24&#45;&gt;26</title>
<path fill="none" stroke="black" d="M984.18,-720.05C985.17,-712.35 986.37,-703.03 987.48,-694.36"/>
<polygon fill="black" stroke="black" points="990.98,-694.64 988.78,-684.28 984.03,-693.75 990.98,-694.64"/>
</g>
<!-- 39 -->
<g id="node87" class="node">
<title>39</title>
<ellipse fill="none" stroke="black" cx="982" cy="-882" rx="27" ry="18"/>
<text text-anchor="middle" x="982" y="-878.3" font-family="Times,serif" font-size="14.00">39</text>
</g>
<!-- 27&#45;&gt;39 -->
<g id="edge88" class="edge">
<title>27&#45;&gt;39</title>
<path fill="none" stroke="black" d="M982,-935.7C982,-927.98 982,-918.71 982,-910.11"/>
<polygon fill="black" stroke="black" points="985.5,-910.1 982,-900.1 978.5,-910.1 985.5,-910.1"/>
</g>
<!-- 42 -->
<g id="node88" class="node">
<title>42</title>
<ellipse fill="none" stroke="black" cx="1054" cy="-882" rx="27" ry="18"/>
<text text-anchor="middle" x="1054" y="-878.3" font-family="Times,serif" font-size="14.00">42</text>
</g>
<!-- 27&#45;&gt;42 -->
<g id="edge89" class="edge">
<title>27&#45;&gt;42</title>
<path fill="none" stroke="black" d="M996.57,-938.83C1006.75,-928.94 1020.52,-915.55 1032.03,-904.36"/>
<polygon fill="black" stroke="black" points="1034.47,-906.87 1039.2,-897.38 1029.59,-901.85 1034.47,-906.87"/>
</g>
<!-- 40 -->
<g id="node75" class="node">
<title>40</title>
<ellipse fill="none" stroke="black" cx="991" cy="-594" rx="27" ry="18"/>
<text text-anchor="middle" x="991" y="-590.3" font-family="Times,serif" font-size="14.00">40</text>
</g>
<!-- 26&#45;&gt;40 -->
<g id="edge75" class="edge">
<title>26&#45;&gt;40</title>
<path fill="none" stroke="black" d="M991,-647.7C991,-639.98 991,-630.71 991,-622.11"/>
<polygon fill="black" stroke="black" points="994.5,-622.1 991,-612.1 987.5,-622.1 994.5,-622.1"/>
</g>
<!-- 116 -->
<g id="node76" class="node">
<title>116</title>
<ellipse fill="none" stroke="black" cx="1063" cy="-594" rx="27" ry="18"/>
<text text-anchor="middle" x="1063" y="-590.3" font-family="Times,serif" font-size="14.00">116</text>
</g>
<!-- 26&#45;&gt;116 -->
<g id="edge76" class="edge">
<title>26&#45;&gt;116</title>
<path fill="none" stroke="black" d="M1005.57,-650.83C1015.75,-640.94 1029.52,-627.55 1041.03,-616.36"/>
<polygon fill="black" stroke="black" points="1043.47,-618.87 1048.2,-609.38 1038.59,-613.85 1043.47,-618.87"/>
</g>
<!-- 51 -->
<g id="node77" class="node">
<title>51</title>
<ellipse fill="none" stroke="black" cx="991" cy="-522" rx="27" ry="18"/>
<text text-anchor="middle" x="991" y="-518.3" font-family="Times,serif" font-size="14.00">51</text>
</g>
<!-- 40&#45;&gt;51 -->
<g id="edge77" class="edge">
<title>40&#45;&gt;51</title>
<path fill="none" stroke="black" d="M991,-575.7C991,-567.98 991,-558.71 991,-550.11"/>
<polygon fill="black" stroke="black" points="994.5,-550.1 991,-540.1 987.5,-550.1 994.5,-550.1"/>
</g>
<!-- 63 -->
<g id="node78" class="node">
<title>63</title>
<ellipse fill="none" stroke="black" cx="1063" cy="-522" rx="27" ry="18"/>
<text text-anchor="middle" x="1063" y="-518.3" font-family="Times,serif" font-size="14.00">63</text>
</g>
<!-- 40&#45;&gt;63 -->
<g id="edge78" class="edge">
<title>40&#45;&gt;63</title>
<path fill="none" stroke="black" d="M1005.57,-578.83C1015.75,-568.94 1029.52,-555.55 1041.03,-544.36"/>
<polygon fill="black" stroke="black" points="1043.47,-546.87 1048.2,-537.38 1038.59,-541.85 1043.47,-546.87"/>
</g>
<!-- 70 -->
<g id="node79" class="node">
<title>70</title>
<ellipse fill="none" stroke="black" cx="955" cy="-450" rx="27" ry="18"/>
<text text-anchor="middle" x="955" y="-446.3" font-family="Times,serif" font-size="14.00">70</text>
</g>
<!-- 51&#45;&gt;70 -->
<g id="edge79" class="edge">
<title>51&#45;&gt;70</title>
<path fill="none" stroke="black" d="M982.65,-504.76C978.29,-496.28 972.85,-485.71 967.96,-476.2"/>
<polygon fill="black" stroke="black" points="970.99,-474.44 963.3,-467.15 964.77,-477.64 970.99,-474.44"/>
</g>
<!-- 72 -->
<g id="node80" class="node">
<title>72</title>
<ellipse fill="none" stroke="black" cx="1027" cy="-450" rx="27" ry="18"/>
<text text-anchor="middle" x="1027" y="-446.3" font-family="Times,serif" font-size="14.00">72</text>
</g>
<!-- 51&#45;&gt;72 -->
<g id="edge80" class="edge">
<title>51&#45;&gt;72</title>
<path fill="none" stroke="black" d="M999.35,-504.76C1003.71,-496.28 1009.15,-485.71 1014.04,-476.2"/>
<polygon fill="black" stroke="black" points="1017.23,-477.64 1018.7,-467.15 1011.01,-474.44 1017.23,-477.64"/>
</g>
<!-- 90 -->
<g id="node81" class="node">
<title>90</title>
<ellipse fill="none" stroke="black" cx="927" cy="-378" rx="27" ry="18"/>
<text text-anchor="middle" x="927" y="-374.3" font-family="Times,serif" font-size="14.00">90</text>
</g>
<!-- 70&#45;&gt;90 -->
<g id="edge81" class="edge">
<title>70&#45;&gt;90</title>
<path fill="none" stroke="black" d="M948.36,-432.41C945.09,-424.22 941.06,-414.14 937.38,-404.95"/>
<polygon fill="black" stroke="black" points="940.55,-403.45 933.59,-395.47 934.05,-406.05 940.55,-403.45"/>
</g>
<!-- 92 -->
<g id="node82" class="node">
<title>92</title>
<ellipse fill="none" stroke="black" cx="954" cy="-306" rx="27" ry="18"/>
<text text-anchor="middle" x="954" y="-302.3" font-family="Times,serif" font-size="14.00">92</text>
</g>
<!-- 70&#45;&gt;92 -->
<g id="edge82" class="edge">
<title>70&#45;&gt;92</title>
<path fill="none" stroke="black" d="M958.25,-431.89C960.05,-421.54 962.09,-408.06 963,-396 964.2,-380.04 964.34,-375.94 963,-360 962.28,-351.5 960.93,-342.31 959.49,-334.01"/>
<polygon fill="black" stroke="black" points="962.91,-333.29 957.65,-324.09 956.03,-334.56 962.91,-333.29"/>
</g>
<!-- 90&#45;&gt;92 -->
<g id="edge83" class="edge">
<title>90&#45;&gt;92</title>
<path fill="none" stroke="black" d="M933.4,-360.41C936.51,-352.34 940.33,-342.43 943.83,-333.35"/>
<polygon fill="black" stroke="black" points="947.13,-334.55 947.46,-323.96 940.6,-332.03 947.13,-334.55"/>
</g>
<!-- 97 -->
<g id="node83" class="node">
<title>97</title>
<ellipse fill="none" stroke="black" cx="954" cy="-234" rx="27" ry="18"/>
<text text-anchor="middle" x="954" y="-230.3" font-family="Times,serif" font-size="14.00">97</text>
</g>
<!-- 92&#45;&gt;97 -->
<g id="edge84" class="edge">
<title>92&#45;&gt;97</title>
<path fill="none" stroke="black" d="M954,-287.7C954,-279.98 954,-270.71 954,-262.11"/>
<polygon fill="black" stroke="black" points="957.5,-262.1 954,-252.1 950.5,-262.1 957.5,-262.1"/>
</g>
<!-- 112 -->
<g id="node84" class="node">
<title>112</title>
<ellipse fill="none" stroke="black" cx="954" cy="-162" rx="27" ry="18"/>
<text text-anchor="middle" x="954" y="-158.3" font-family="Times,serif" font-size="14.00">112</text>
</g>
<!-- 97&#45;&gt;112 -->
<g id="edge85" class="edge">
<title>97&#45;&gt;112</title>
<path fill="none" stroke="black" d="M954,-215.7C954,-207.98 954,-198.71 954,-190.11"/>
<polygon fill="black" stroke="black" points="957.5,-190.1 954,-180.1 950.5,-190.1 957.5,-190.1"/>
</g>
<!-- 113 -->
<g id="node85" class="node">
<title>113</title>
<ellipse fill="none" stroke="black" cx="954" cy="-90" rx="27" ry="18"/>
<text text-anchor="middle" x="954" y="-86.3" font-family="Times,serif" font-size="14.00">113</text>
</g>
<!-- 112&#45;&gt;113 -->
<g id="edge86" class="edge">
<title>112&#45;&gt;113</title>
<path fill="none" stroke="black" d="M954,-143.7C954,-135.98 954,-126.71 954,-118.11"/>
<polygon fill="black" stroke="black" points="957.5,-118.1 954,-108.1 950.5,-118.1 957.5,-118.1"/>
</g>
<!-- 107 -->
<g id="node86" class="node">
<title>107</title>
<ellipse fill="none" stroke="black" cx="954" cy="-18" rx="27" ry="18"/>
<text text-anchor="middle" x="954" y="-14.3" font-family="Times,serif" font-size="14.00">107</text>
</g>
<!-- 113&#45;&gt;107 -->
<g id="edge87" class="edge">
<title>113&#45;&gt;107</title>
<path fill="none" stroke="black" d="M954,-71.7C954,-63.98 954,-54.71 954,-46.11"/>
<polygon fill="black" stroke="black" points="957.5,-46.1 954,-36.1 950.5,-46.1 957.5,-46.1"/>
</g>
<!-- 52 -->
<g id="node89" class="node">
<title>52</title>
<ellipse fill="none" stroke="black" cx="982" cy="-810" rx="27" ry="18"/>
<text text-anchor="middle" x="982" y="-806.3" font-family="Times,serif" font-size="14.00">52</text>
</g>
<!-- 39&#45;&gt;52 -->
<g id="edge90" class="edge">
<title>39&#45;&gt;52</title>
<path fill="none" stroke="black" d="M982,-863.7C982,-855.98 982,-846.71 982,-838.11"/>
<polygon fill="black" stroke="black" points="985.5,-838.1 982,-828.1 978.5,-838.1 985.5,-838.1"/>
</g>
<!-- 54 -->
<g id="node90" class="node">
<title>54</title>
<ellipse fill="none" stroke="black" cx="1054" cy="-810" rx="27" ry="18"/>
<text text-anchor="middle" x="1054" y="-806.3" font-family="Times,serif" font-size="14.00">54</text>
</g>
<!-- 39&#45;&gt;54 -->
<g id="edge91" class="edge">
<title>39&#45;&gt;54</title>
<path fill="none" stroke="black" d="M996.57,-866.83C1006.75,-856.94 1020.52,-843.55 1032.03,-832.36"/>
<polygon fill="black" stroke="black" points="1034.47,-834.87 1039.2,-825.38 1029.59,-829.85 1034.47,-834.87"/>
</g>
<!-- 52&#45;&gt;24 -->
<g id="edge92" class="edge">
<title>52&#45;&gt;24</title>
<path fill="none" stroke="black" d="M982,-791.7C982,-783.98 982,-774.71 982,-766.11"/>
<polygon fill="black" stroke="black" points="985.5,-766.1 982,-756.1 978.5,-766.1 985.5,-766.1"/>
</g>
</g>
</svg>
